<svg width="16" height="16" fill="none" xmlns="http://www.w3.org/2000/svg"><path fill-rule="evenodd" clip-rule="evenodd" d="M5 0h6a5 5 0 015 5v6a5 5 0 01-5 5H5a5 5 0 01-5-5V5a5 5 0 015-5zm6.5 15c1.93 0 3.5-1.57 3.5-3.5v-6C15 3.57 13.43 2 11.5 2h-6C3.57 2 2 3.57 2 5.5v6C2 13.43 3.57 15 5.5 15h6z" fill="#fff"/><path fill-rule="evenodd" clip-rule="evenodd" d="M4 8a4 4 0 118 0 4 4 0 01-8 0zm2 .5C6 9.878 7.122 11 8.5 11S11 9.878 11 8.5C11 7.121 9.878 6 8.5 6A2.503 2.503 0 006 8.5z" fill="#fff"/><circle cx="12.5" cy="3.5" r=".5" fill="#fff"/></svg>