<svg width="19" height="19" fill="none" xmlns="http://www.w3.org/2000/svg"><path d="M18.935 8.474a.316.316 0 00-.105-.201.307.307 0 00-.222-.086h-5.92l4.2-4.2a.354.354 0 00.096-.21.296.296 0 00-.077-.22 9.198 9.198 0 00-1.451-1.458.327.327 0 00-.221-.076.366.366 0 00-.221.105l-4.191 4.19V.383a.335.335 0 00-.087-.221.318.318 0 00-.201-.105 9.223 9.223 0 00-2.057 0 .317.317 0 00-.202.105.335.335 0 00-.087.22v5.934L4 2.12a.356.356 0 00-.212-.096.337.337 0 00-.23.076 8.64 8.64 0 00-1.452 1.448.392.392 0 00-.077.23.35.35 0 00.096.21l4.2 4.2H.385a.347.347 0 00-.22.076.373.373 0 00-.106.211 9.15 9.15 0 000 2.052.344.344 0 00.207.276.31.31 0 00.12.02h5.93l-4.2 4.19a.354.354 0 00-.096.22c.002.08.028.157.076.221.212.269.44.525.683.767.25.24.5.47.769.69a.323.323 0 00.23.067.308.308 0 00.212-.096l4.19-4.189v5.924a.306.306 0 00.087.221.317.317 0 00.202.105 9.227 9.227 0 002.057 0 .317.317 0 00.202-.105.305.305 0 00.086-.22v-5.925l4.2 4.2a.345.345 0 00.212.095c.08 0 .158-.028.221-.077a8.574 8.574 0 001.442-1.447.297.297 0 00.077-.22.355.355 0 00-.096-.212l-4.181-4.16h5.93a.299.299 0 00.212-.086.286.286 0 00.115-.202 9.325 9.325 0 00-.01-2.109z" fill="#187BF5"/></svg>