<svg width="12" height="12" fill="none" xmlns="http://www.w3.org/2000/svg"><path d="M11.96 5.352a.2.2 0 00-.068-.127.193.193 0 00-.14-.054H8.014l2.653-2.652a.224.224 0 00.06-.134.189.189 0 00-.048-.139 5.81 5.81 0 00-.916-.92.207.207 0 00-.14-.048.231.231 0 00-.14.066L6.836 3.99V.242a.212.212 0 00-.183-.206 5.825 5.825 0 00-1.299 0 .2.2 0 00-.127.067.212.212 0 00-.055.14V3.99L2.525 1.338a.225.225 0 00-.133-.06.213.213 0 00-.146.048c-.34.267-.648.574-.917.914a.248.248 0 00-.048.145c.005.05.026.097.06.134L3.995 5.17H.243a.218.218 0 00-.14.048.236.236 0 00-.067.133 5.85 5.85 0 000 1.296.218.218 0 00.132.174c.024.01.05.014.075.014h3.745L1.336 9.48a.224.224 0 00-.061.14.24.24 0 00.048.139c.134.17.278.331.431.484.158.152.316.297.486.436a.207.207 0 00.146.043.195.195 0 00.133-.061l2.647-2.646v3.742a.193.193 0 00.055.14.2.2 0 00.127.066 5.825 5.825 0 001.3 0 .2.2 0 00.127-.067.193.193 0 00.054-.14v-3.74l2.653 2.651a.213.213 0 00.134.06c.05 0 .1-.017.14-.048.338-.267.644-.574.91-.914a.187.187 0 00.049-.14.224.224 0 00-.061-.133l-2.64-2.627h3.745a.189.189 0 00.133-.055.182.182 0 00.073-.127c.049-.443.046-.89-.006-1.332z" fill="#187BF5"/></svg>