<svg width="20" height="16" fill="none" xmlns="http://www.w3.org/2000/svg"><path d="M20 1.894a8.653 8.653 0 01-2.363.638A4.026 4.026 0 0019.441.3a8.271 8.271 0 01-2.6.978A4.139 4.139 0 0013.846 0C11.576 0 9.75 1.814 9.75 4.038c0 .32.027.628.095.92A11.666 11.666 0 011.393.737a4.017 4.017 0 00-.562 2.04 4.03 4.03 0 001.821 3.356A4.098 4.098 0 01.8 5.634v.045C.8 7.64 2.221 9.27 4.085 9.646c-.334.09-.697.132-1.075.132a3.68 3.68 0 01-.776-.068 4.131 4.131 0 003.831 2.812 8.32 8.32 0 01-5.084 1.722A7.73 7.73 0 010 14.188 11.675 11.675 0 006.29 16c7.545 0 11.67-6.154 11.67-11.488 0-.178-.006-.35-.015-.522A8.11 8.11 0 0020 1.894z" fill="#fff"/></svg>